Coordinates
version=1
nRows=9
nColumns=42
inDegrees=yes

Units are S.I. units (second, meters, Newtons, ...)
If the header above contains a line with 'inDegrees', this indicates whether rotational values are in degrees (yes) or radians (no).

endheader
time	pelvis_tilt	pelvis_list	pelvis_rotation	pelvis_tx	pelvis_ty	pelvis_tz	hip_flexion_r	hip_adduction_r	hip_rotation_r	knee_angle_r	knee_angle_r_beta	ankle_angle_r	subtalar_angle_r	mtp_angle_r	hip_flexion_l	hip_adduction_l	hip_rotation_l	knee_angle_l	knee_angle_l_beta	ankle_angle_l	subtalar_angle_l	mtp_angle_l	lumbar_extension	lumbar_bending	lumbar_rotation	sh_tx_r	sh_ty_r	sh_tz_r	sh_plane_elev_r	sh_elev_r	sh_axial_rot_r	elbow_flex_r	pro_sup_r	sh_tx_l	sh_ty_l	sh_tz_l	sh_plane_elev_l	sh_elev_l	sh_axial_rot_l	elbow_flex_l	pro_sup_l
      7.48333330	     -6.79940117	     -0.40083474	      4.11354416	      0.25401992	      0.93912671	     -0.06941868	      3.28234511	     -7.44357054	     -6.44619665	      0.29819064	      0.00520441	      2.79287461	     -5.40994029	     -7.49999987	      5.52613633	     -4.06008967	     -5.10933782	      3.01568512	      0.05263363	      8.72465887	      0.87822606	     -7.49999987	      3.37893204	      0.63822080	      0.66905481	     -0.01188190	     -0.00960108	     -0.00663927	    -30.35238635	      4.66805560	      3.58390994	     31.41003287	    105.04804335	     -0.01587976	      0.01735457	     -0.00539493	     39.13570403	     61.18021619	     -7.80963740	      7.95460365	      2.84282910
      7.50000000	     -6.85136838	     -0.41500527	      4.14869074	      0.25408742	      0.93923988	     -0.06955814	      3.33100217	     -7.43147616	     -6.44895941	      0.30755529	      0.00536785	      2.77331197	     -5.53416608	     -7.49999987	      5.62416938	     -4.10028069	     -5.14414267	      3.13487331	      0.05471386	      8.71660782	      0.88474804	     -7.49999987	      3.61870753	      0.52253087	      0.95027811	     -0.01213656	     -0.00953647	     -0.00661079	    -29.67602958	      4.93474862	      3.11969882	     30.86971565	    109.82540827	     -0.01375255	      0.01632793	     -0.00545663	     39.32862446	     60.44024868	    -10.43453313	      8.80560564	      2.77468868
      7.51666670	     -6.74884897	     -0.40180043	      4.17499753	      0.25424943	      0.94253322	     -0.06972402	      3.20432689	     -7.43488046	     -6.44378873	      0.30916209	      0.00539590	      2.78693393	     -5.54740061	     -7.49999987	      5.51067357	     -4.11832330	     -5.07742801	      3.16258658	      0.05519755	      8.64145681	      0.78084293	     -7.49999987	      3.47573706	      0.29221899	      0.78263295	     -0.01164729	     -0.01009864	     -0.00647672	    -29.25944754	      4.86947034	      3.30507933	     30.69560007	    108.24690930	     -0.01166666	      0.01402482	     -0.00525442	     38.90077500	     59.20509938	    -11.42746822	      9.66360390	      2.95939445
      7.53333330	     -6.71308365	     -0.38361507	      4.17099837	      0.25427172	      0.94264425	     -0.06975783	      3.16944894	     -7.45559339	     -6.51821760	      0.30916334	      0.00539592	      2.75282245	     -5.41633320	     -7.49999987	      5.43702940	     -4.10045263	     -5.01887143	      3.13516323	      0.05471892	      8.59404760	      0.61244958	     -7.49999987	      3.42463573	      0.21563001	      0.22997851	     -0.00958198	     -0.01031869	     -0.00644820	    -28.16302812	      4.91711802	      3.74111888	     30.52396174	    106.31675569	     -0.01169630	      0.01270755	     -0.00530759	     38.21165082	     57.61779184	    -13.28035105	     10.61128642	      2.90906328
      7.55000000	     -6.75994739	     -0.37115755	      4.18927287	      0.25433377	      0.94242050	     -0.06967703	      3.21595616	     -7.46256773	     -6.49000086	      0.31035602	      0.00541673	      2.71433791	     -5.49380487	     -7.49999987	      5.47270393	     -4.08528777	     -5.04166159	      3.13971669	      0.05479839	      8.52837795	      0.57215256	     -7.49999987	      3.58461056	      0.10816402	      0.14305188	     -0.00872562	     -0.01091401	     -0.00648205	    -26.61733470	      5.15416973	      2.70857664	     30.08670207	    109.05350399	     -0.01005095	      0.01147675	     -0.00539763	     37.86566126	     56.70635791	    -16.88191529	     12.01083413	      3.16283214
      7.56666670	     -6.64043981	     -0.35728222	      4.18734753	      0.25421841	      0.94248795	     -0.06972947	      3.08390898	     -7.47019561	     -6.51506198	      0.30415664	      0.00530853	      2.70866547	     -5.47250308	     -7.49999987	      5.31234565	     -4.06735547	     -5.00017240	      3.07055796	      0.05359135	      8.47301186	      0.58427459	     -7.49999987	      3.34447880	      0.05756083	      0.27182401	     -0.00902256	     -0.01110624	     -0.00649750	    -26.67931225	      5.34247635	      2.38160567	     30.25611891	    107.63224867	     -0.01005018	      0.01063166	     -0.00552976	     37.77024669	     55.90638476	    -17.34947186	     12.67315220	      3.29132405
      7.58333330	     -6.73598155	     -0.35277590	      4.19492706	      0.25425557	      0.94216717	     -0.06959129	      3.19639558	     -7.48037785	     -6.48899483	      0.30656092	      0.00535050	      2.70340513	     -5.47132833	     -7.49999987	      5.42255499	     -4.04752937	     -4.99362819	      3.08806174	      0.05389684	      8.42998112	      0.49277730	     -7.49999987	      3.59944730	      0.07048681	     -0.09086777	     -0.00707881	     -0.01119590	     -0.00656369	    -27.11270532	      5.57721492	      2.89395143	     30.34177785	    109.18274985	     -0.00960544	      0.01072644	     -0.00569363	     36.42645804	     54.68721777	    -21.14194185	     14.79487454	      3.54750902
      7.60000000	     -6.62281291	     -0.32547967	      4.17221504	      0.25430683	      0.94232814	     -0.06967467	      3.08708478	     -7.49251829	     -6.57498209	      0.30046656	      0.00524413	      2.70068432	     -5.30877467	     -7.49999987	      5.24615372	     -4.01161038	     -4.95094914	      2.96548272	      0.05175744	      8.20511309	      0.43886762	     -7.49999987	      3.44014012	     -0.01464106	     -0.18033199	     -0.00604300	     -0.01132741	     -0.00653411	    -26.81216980	      5.70995720	      3.03518430	     30.34997922	    106.92019073	     -0.00776537	      0.01095390	     -0.00570730	     35.60695637	     53.41212814	    -21.74421253	     15.81167673	      4.52435502
      7.61666670	     -6.68217050	     -0.32149860	      4.14986008	      0.25426413	      0.94196807	     -0.06960206	      3.17678726	     -7.50210343	     -6.48220195	      0.29942091	      0.00522588	      2.62013405	     -5.26451590	     -7.49999987	      5.31137318	     -3.99173181	     -4.94645163	      2.97259006	      0.05188148	      8.33868961	      0.49342666	     -7.49999987	      3.48546884	      0.00332302	     -0.58337535	     -0.00492731	     -0.01120397	     -0.00659949	    -26.58322824	      5.67212435	      3.50178512	     30.12160694	    106.06745221	     -0.00886423	      0.01244050	     -0.00577887	     34.30602710	     50.99469631	    -23.54142409	     17.28040922	      3.66858590
